<mxfile host="Electron" agent="Mozilla/5.0 (Windows NT 10.0; Win64; x64) AppleWebKit/537.36 (KHTML, like Gecko) draw.io/26.0.16 Chrome/132.0.6834.196 Electron/34.2.0 Safari/537.36" version="26.0.16">
  <diagram name="1 oldal" id="JIIqVNPzNAyrjcaQyFjt">
    <mxGraphModel dx="2103" dy="1783" grid="1" gridSize="10" guides="1" tooltips="1" connect="1" arrows="1" fold="1" page="1" pageScale="1" pageWidth="827" pageHeight="1169" math="0" shadow="0">
      <root>
        <mxCell id="0" />
        <mxCell id="1" parent="0" />
        <mxCell id="Is8Id95nQAFQ8Lu3S8sj-3" value="&lt;b&gt;Termék&lt;/b&gt;" style="rounded=0;whiteSpace=wrap;html=1;" parent="1" vertex="1">
          <mxGeometry x="100" y="100" width="120" height="60" as="geometry" />
        </mxCell>
        <mxCell id="Is8Id95nQAFQ8Lu3S8sj-4" value="&lt;b&gt;Gyártó&lt;/b&gt;" style="rounded=0;whiteSpace=wrap;html=1;" parent="1" vertex="1">
          <mxGeometry x="550" y="100" width="120" height="60" as="geometry" />
        </mxCell>
        <mxCell id="Is8Id95nQAFQ8Lu3S8sj-5" value="&lt;b&gt;T-GY&lt;/b&gt;" style="rhombus;whiteSpace=wrap;html=1;" parent="1" vertex="1">
          <mxGeometry x="350" y="90" width="80" height="80" as="geometry" />
        </mxCell>
        <mxCell id="Is8Id95nQAFQ8Lu3S8sj-6" value="&lt;b&gt;tkód&lt;/b&gt;" style="ellipse;whiteSpace=wrap;html=1;fontStyle=4" parent="1" vertex="1">
          <mxGeometry y="220" width="80" height="40" as="geometry" />
        </mxCell>
        <mxCell id="Is8Id95nQAFQ8Lu3S8sj-7" value="&lt;b&gt;Név&lt;/b&gt;" style="ellipse;whiteSpace=wrap;html=1;" parent="1" vertex="1">
          <mxGeometry x="120" y="220" width="80" height="40" as="geometry" />
        </mxCell>
        <mxCell id="Is8Id95nQAFQ8Lu3S8sj-8" value="&lt;b&gt;ear&lt;/b&gt;" style="ellipse;whiteSpace=wrap;html=1;" parent="1" vertex="1">
          <mxGeometry x="240" y="220" width="80" height="40" as="geometry" />
        </mxCell>
        <mxCell id="Is8Id95nQAFQ8Lu3S8sj-9" value="&lt;b&gt;adószám&lt;/b&gt;" style="ellipse;whiteSpace=wrap;html=1;fontStyle=4" parent="1" vertex="1">
          <mxGeometry x="414" y="220" width="80" height="40" as="geometry" />
        </mxCell>
        <mxCell id="Is8Id95nQAFQ8Lu3S8sj-10" value="&lt;b&gt;név&lt;/b&gt;" style="ellipse;whiteSpace=wrap;html=1;" parent="1" vertex="1">
          <mxGeometry x="510" y="220" width="80" height="40" as="geometry" />
        </mxCell>
        <mxCell id="Is8Id95nQAFQ8Lu3S8sj-11" value="&lt;b&gt;Telephely&lt;/b&gt;" style="ellipse;whiteSpace=wrap;html=1;" parent="1" vertex="1">
          <mxGeometry x="630" y="220" width="80" height="40" as="geometry" />
        </mxCell>
        <mxCell id="Is8Id95nQAFQ8Lu3S8sj-12" style="edgeStyle=orthogonalEdgeStyle;rounded=0;orthogonalLoop=1;jettySize=auto;html=1;exitX=0.5;exitY=1;exitDx=0;exitDy=0;" parent="1" source="Is8Id95nQAFQ8Lu3S8sj-8" target="Is8Id95nQAFQ8Lu3S8sj-8" edge="1">
          <mxGeometry relative="1" as="geometry" />
        </mxCell>
        <mxCell id="Is8Id95nQAFQ8Lu3S8sj-14" value="" style="endArrow=none;html=1;rounded=0;exitX=0.5;exitY=0;exitDx=0;exitDy=0;" parent="1" source="Is8Id95nQAFQ8Lu3S8sj-8" edge="1">
          <mxGeometry width="50" height="50" relative="1" as="geometry">
            <mxPoint x="380" y="240" as="sourcePoint" />
            <mxPoint x="280" y="220" as="targetPoint" />
            <Array as="points">
              <mxPoint x="160" y="160" />
            </Array>
          </mxGeometry>
        </mxCell>
        <mxCell id="Is8Id95nQAFQ8Lu3S8sj-17" value="" style="endArrow=none;html=1;rounded=0;entryX=0.5;entryY=1;entryDx=0;entryDy=0;exitX=0.5;exitY=0;exitDx=0;exitDy=0;" parent="1" source="Is8Id95nQAFQ8Lu3S8sj-11" target="Is8Id95nQAFQ8Lu3S8sj-4" edge="1">
          <mxGeometry width="50" height="50" relative="1" as="geometry">
            <mxPoint x="380" y="240" as="sourcePoint" />
            <mxPoint x="430" y="190" as="targetPoint" />
          </mxGeometry>
        </mxCell>
        <mxCell id="Is8Id95nQAFQ8Lu3S8sj-18" value="" style="endArrow=none;html=1;rounded=0;entryX=0.5;entryY=1;entryDx=0;entryDy=0;exitX=0.5;exitY=0;exitDx=0;exitDy=0;" parent="1" source="Is8Id95nQAFQ8Lu3S8sj-9" target="Is8Id95nQAFQ8Lu3S8sj-4" edge="1">
          <mxGeometry width="50" height="50" relative="1" as="geometry">
            <mxPoint x="380" y="240" as="sourcePoint" />
            <mxPoint x="430" y="190" as="targetPoint" />
          </mxGeometry>
        </mxCell>
        <mxCell id="Is8Id95nQAFQ8Lu3S8sj-19" value="" style="endArrow=none;html=1;rounded=0;exitX=0.5;exitY=0;exitDx=0;exitDy=0;" parent="1" source="Is8Id95nQAFQ8Lu3S8sj-10" edge="1">
          <mxGeometry width="50" height="50" relative="1" as="geometry">
            <mxPoint x="380" y="240" as="sourcePoint" />
            <mxPoint x="610" y="160" as="targetPoint" />
          </mxGeometry>
        </mxCell>
        <mxCell id="Is8Id95nQAFQ8Lu3S8sj-21" value="" style="endArrow=none;html=1;rounded=0;entryX=0.5;entryY=1;entryDx=0;entryDy=0;exitX=0.5;exitY=0;exitDx=0;exitDy=0;" parent="1" source="Is8Id95nQAFQ8Lu3S8sj-7" target="Is8Id95nQAFQ8Lu3S8sj-3" edge="1">
          <mxGeometry width="50" height="50" relative="1" as="geometry">
            <mxPoint x="380" y="240" as="sourcePoint" />
            <mxPoint x="430" y="190" as="targetPoint" />
          </mxGeometry>
        </mxCell>
        <mxCell id="Is8Id95nQAFQ8Lu3S8sj-22" value="" style="endArrow=none;html=1;rounded=0;entryX=0.5;entryY=1;entryDx=0;entryDy=0;exitX=0.5;exitY=0;exitDx=0;exitDy=0;" parent="1" source="Is8Id95nQAFQ8Lu3S8sj-6" target="Is8Id95nQAFQ8Lu3S8sj-3" edge="1">
          <mxGeometry width="50" height="50" relative="1" as="geometry">
            <mxPoint x="380" y="240" as="sourcePoint" />
            <mxPoint x="430" y="190" as="targetPoint" />
          </mxGeometry>
        </mxCell>
        <mxCell id="Is8Id95nQAFQ8Lu3S8sj-25" value="" style="endArrow=classic;html=1;rounded=0;entryX=0;entryY=0.5;entryDx=0;entryDy=0;exitX=1;exitY=0.5;exitDx=0;exitDy=0;" parent="1" source="Is8Id95nQAFQ8Lu3S8sj-5" target="Is8Id95nQAFQ8Lu3S8sj-4" edge="1">
          <mxGeometry width="50" height="50" relative="1" as="geometry">
            <mxPoint x="380" y="140" as="sourcePoint" />
            <mxPoint x="430" y="90" as="targetPoint" />
          </mxGeometry>
        </mxCell>
        <mxCell id="Is8Id95nQAFQ8Lu3S8sj-26" value="" style="endArrow=classic;html=1;rounded=0;entryX=1;entryY=0.5;entryDx=0;entryDy=0;exitX=0;exitY=0.5;exitDx=0;exitDy=0;" parent="1" source="Is8Id95nQAFQ8Lu3S8sj-5" target="Is8Id95nQAFQ8Lu3S8sj-3" edge="1">
          <mxGeometry width="50" height="50" relative="1" as="geometry">
            <mxPoint x="380" y="140" as="sourcePoint" />
            <mxPoint x="430" y="90" as="targetPoint" />
          </mxGeometry>
        </mxCell>
        <mxCell id="Is8Id95nQAFQ8Lu3S8sj-28" value="" style="endArrow=classic;html=1;rounded=0;exitX=0;exitY=0.5;exitDx=0;exitDy=0;" parent="1" source="Is8Id95nQAFQ8Lu3S8sj-5" edge="1">
          <mxGeometry width="50" height="50" relative="1" as="geometry">
            <mxPoint x="370" y="190" as="sourcePoint" />
            <mxPoint x="230" y="130" as="targetPoint" />
          </mxGeometry>
        </mxCell>
        <mxCell id="Is8Id95nQAFQ8Lu3S8sj-29" value="&lt;b&gt;Irányító szám&lt;/b&gt;" style="ellipse;whiteSpace=wrap;html=1;" parent="1" vertex="1">
          <mxGeometry x="580" y="330" width="80" height="40" as="geometry" />
        </mxCell>
        <mxCell id="Is8Id95nQAFQ8Lu3S8sj-30" value="&lt;b&gt;Város&lt;/b&gt;" style="ellipse;whiteSpace=wrap;html=1;" parent="1" vertex="1">
          <mxGeometry x="690" y="330" width="80" height="40" as="geometry" />
        </mxCell>
        <mxCell id="Is8Id95nQAFQ8Lu3S8sj-31" value="&lt;b&gt;Posta cím&lt;/b&gt;" style="ellipse;whiteSpace=wrap;html=1;" parent="1" vertex="1">
          <mxGeometry x="720" y="220" width="80" height="40" as="geometry" />
        </mxCell>
        <mxCell id="Is8Id95nQAFQ8Lu3S8sj-34" value="&lt;b&gt;Utca&lt;/b&gt;" style="ellipse;whiteSpace=wrap;html=1;" parent="1" vertex="1">
          <mxGeometry x="800" y="330" width="80" height="40" as="geometry" />
        </mxCell>
        <mxCell id="Is8Id95nQAFQ8Lu3S8sj-35" value="&lt;b&gt;Házszám&lt;/b&gt;" style="ellipse;whiteSpace=wrap;html=1;" parent="1" vertex="1">
          <mxGeometry x="900" y="330" width="80" height="40" as="geometry" />
        </mxCell>
        <mxCell id="Is8Id95nQAFQ8Lu3S8sj-36" value="" style="endArrow=none;html=1;rounded=0;exitX=0.5;exitY=1;exitDx=0;exitDy=0;entryX=0.5;entryY=0;entryDx=0;entryDy=0;" parent="1" source="Is8Id95nQAFQ8Lu3S8sj-31" target="Is8Id95nQAFQ8Lu3S8sj-29" edge="1">
          <mxGeometry width="50" height="50" relative="1" as="geometry">
            <mxPoint x="750" y="290" as="sourcePoint" />
            <mxPoint x="800" y="240" as="targetPoint" />
          </mxGeometry>
        </mxCell>
        <mxCell id="Is8Id95nQAFQ8Lu3S8sj-37" value="" style="endArrow=none;html=1;rounded=0;exitX=0.5;exitY=1;exitDx=0;exitDy=0;entryX=0.5;entryY=0;entryDx=0;entryDy=0;" parent="1" source="Is8Id95nQAFQ8Lu3S8sj-31" target="Is8Id95nQAFQ8Lu3S8sj-30" edge="1">
          <mxGeometry width="50" height="50" relative="1" as="geometry">
            <mxPoint x="750" y="290" as="sourcePoint" />
            <mxPoint x="800" y="240" as="targetPoint" />
          </mxGeometry>
        </mxCell>
        <mxCell id="Is8Id95nQAFQ8Lu3S8sj-38" value="" style="endArrow=none;html=1;rounded=0;entryX=0.5;entryY=0;entryDx=0;entryDy=0;exitX=0.5;exitY=1;exitDx=0;exitDy=0;" parent="1" source="Is8Id95nQAFQ8Lu3S8sj-31" target="Is8Id95nQAFQ8Lu3S8sj-34" edge="1">
          <mxGeometry width="50" height="50" relative="1" as="geometry">
            <mxPoint x="750" y="290" as="sourcePoint" />
            <mxPoint x="800" y="240" as="targetPoint" />
          </mxGeometry>
        </mxCell>
        <mxCell id="Is8Id95nQAFQ8Lu3S8sj-39" value="" style="endArrow=none;html=1;rounded=0;entryX=0.5;entryY=0;entryDx=0;entryDy=0;exitX=0.5;exitY=1;exitDx=0;exitDy=0;" parent="1" source="Is8Id95nQAFQ8Lu3S8sj-31" target="Is8Id95nQAFQ8Lu3S8sj-35" edge="1">
          <mxGeometry width="50" height="50" relative="1" as="geometry">
            <mxPoint x="720" y="360" as="sourcePoint" />
            <mxPoint x="800" y="240" as="targetPoint" />
          </mxGeometry>
        </mxCell>
        <mxCell id="Is8Id95nQAFQ8Lu3S8sj-40" value="&lt;b&gt;Alkatrész&lt;/b&gt;" style="rounded=0;whiteSpace=wrap;html=1;" parent="1" vertex="1">
          <mxGeometry x="-240" y="100" width="120" height="60" as="geometry" />
        </mxCell>
        <mxCell id="Is8Id95nQAFQ8Lu3S8sj-41" value="&lt;b&gt;A-T&lt;/b&gt;" style="rhombus;whiteSpace=wrap;html=1;" parent="1" vertex="1">
          <mxGeometry x="-40" y="90" width="80" height="80" as="geometry" />
        </mxCell>
        <mxCell id="Is8Id95nQAFQ8Lu3S8sj-42" value="" style="endArrow=classic;html=1;rounded=0;exitX=1;exitY=0.5;exitDx=0;exitDy=0;" parent="1" source="Is8Id95nQAFQ8Lu3S8sj-41" edge="1">
          <mxGeometry width="50" height="50" relative="1" as="geometry">
            <mxPoint x="30" y="140" as="sourcePoint" />
            <mxPoint x="99" y="130" as="targetPoint" />
          </mxGeometry>
        </mxCell>
        <mxCell id="Is8Id95nQAFQ8Lu3S8sj-44" value="" style="endArrow=classic;html=1;rounded=0;entryX=1;entryY=0.5;entryDx=0;entryDy=0;exitX=0;exitY=0.5;exitDx=0;exitDy=0;" parent="1" source="Is8Id95nQAFQ8Lu3S8sj-41" target="Is8Id95nQAFQ8Lu3S8sj-40" edge="1">
          <mxGeometry width="50" height="50" relative="1" as="geometry">
            <mxPoint x="-120" y="200" as="sourcePoint" />
            <mxPoint x="-70" y="150" as="targetPoint" />
            <Array as="points" />
          </mxGeometry>
        </mxCell>
        <mxCell id="Is8Id95nQAFQ8Lu3S8sj-45" value="" style="endArrow=classic;html=1;rounded=0;" parent="1" edge="1">
          <mxGeometry width="50" height="50" relative="1" as="geometry">
            <mxPoint x="-40" y="130" as="sourcePoint" />
            <mxPoint x="-100" y="130" as="targetPoint" />
            <Array as="points" />
          </mxGeometry>
        </mxCell>
        <mxCell id="Is8Id95nQAFQ8Lu3S8sj-46" value="&lt;b&gt;&lt;u&gt;Akod&lt;/u&gt;&lt;/b&gt;" style="ellipse;whiteSpace=wrap;html=1;" parent="1" vertex="1">
          <mxGeometry x="-290" y="190" width="80" height="40" as="geometry" />
        </mxCell>
        <mxCell id="Is8Id95nQAFQ8Lu3S8sj-47" value="&lt;b&gt;Név&lt;/b&gt;" style="ellipse;whiteSpace=wrap;html=1;" parent="1" vertex="1">
          <mxGeometry x="-160" y="190" width="80" height="40" as="geometry" />
        </mxCell>
        <mxCell id="Is8Id95nQAFQ8Lu3S8sj-48" value="" style="endArrow=none;html=1;rounded=0;entryX=0.5;entryY=0;entryDx=0;entryDy=0;exitX=0.5;exitY=1;exitDx=0;exitDy=0;" parent="1" source="Is8Id95nQAFQ8Lu3S8sj-40" target="Is8Id95nQAFQ8Lu3S8sj-47" edge="1">
          <mxGeometry width="50" height="50" relative="1" as="geometry">
            <mxPoint x="-200" y="290" as="sourcePoint" />
            <mxPoint x="-150" y="240" as="targetPoint" />
          </mxGeometry>
        </mxCell>
        <mxCell id="Is8Id95nQAFQ8Lu3S8sj-50" value="" style="endArrow=none;html=1;rounded=0;exitX=0.5;exitY=0;exitDx=0;exitDy=0;" parent="1" source="Is8Id95nQAFQ8Lu3S8sj-46" edge="1">
          <mxGeometry width="50" height="50" relative="1" as="geometry">
            <mxPoint x="-230" y="210" as="sourcePoint" />
            <mxPoint x="-180" y="160" as="targetPoint" />
            <Array as="points" />
          </mxGeometry>
        </mxCell>
        <mxCell id="Is8Id95nQAFQ8Lu3S8sj-51" value="" style="endArrow=none;html=1;rounded=0;exitX=0.5;exitY=1;exitDx=0;exitDy=0;entryX=0.5;entryY=0;entryDx=0;entryDy=0;" parent="1" source="Is8Id95nQAFQ8Lu3S8sj-4" target="Is8Id95nQAFQ8Lu3S8sj-31" edge="1">
          <mxGeometry width="50" height="50" relative="1" as="geometry">
            <mxPoint x="780" y="200" as="sourcePoint" />
            <mxPoint x="830" y="150" as="targetPoint" />
            <Array as="points" />
          </mxGeometry>
        </mxCell>
        <mxCell id="KkdQSx_1zXDLFK-FRpoO-9" value="" style="ellipse;whiteSpace=wrap;html=1;" vertex="1" parent="1">
          <mxGeometry x="100" y="40" width="120" height="40" as="geometry" />
        </mxCell>
        <mxCell id="KkdQSx_1zXDLFK-FRpoO-10" value="&lt;b&gt;egység-db&lt;/b&gt;" style="ellipse;whiteSpace=wrap;html=1;" vertex="1" parent="1">
          <mxGeometry x="120" y="45" width="80" height="30" as="geometry" />
        </mxCell>
        <mxCell id="KkdQSx_1zXDLFK-FRpoO-13" value="" style="endArrow=none;html=1;rounded=0;exitX=0.5;exitY=0;exitDx=0;exitDy=0;entryX=0.5;entryY=1;entryDx=0;entryDy=0;" edge="1" parent="1" source="Is8Id95nQAFQ8Lu3S8sj-3" target="KkdQSx_1zXDLFK-FRpoO-9">
          <mxGeometry width="50" height="50" relative="1" as="geometry">
            <mxPoint x="200" y="140" as="sourcePoint" />
            <mxPoint x="250" y="90" as="targetPoint" />
          </mxGeometry>
        </mxCell>
        <mxCell id="KkdQSx_1zXDLFK-FRpoO-14" value="&lt;b&gt;T-R&lt;/b&gt;" style="rhombus;whiteSpace=wrap;html=1;" vertex="1" parent="1">
          <mxGeometry x="350" y="-30" width="80" height="80" as="geometry" />
        </mxCell>
        <mxCell id="KkdQSx_1zXDLFK-FRpoO-15" value="&lt;b&gt;Rendelés&lt;/b&gt;" style="rounded=0;whiteSpace=wrap;html=1;" vertex="1" parent="1">
          <mxGeometry x="550" y="-20" width="120" height="60" as="geometry" />
        </mxCell>
        <mxCell id="KkdQSx_1zXDLFK-FRpoO-16" value="&lt;b&gt;darabszám&lt;/b&gt;" style="ellipse;whiteSpace=wrap;html=1;" vertex="1" parent="1">
          <mxGeometry x="800" y="40" width="80" height="40" as="geometry" />
        </mxCell>
        <mxCell id="KkdQSx_1zXDLFK-FRpoO-17" value="&lt;b&gt;dátum&lt;/b&gt;" style="ellipse;whiteSpace=wrap;html=1;" vertex="1" parent="1">
          <mxGeometry x="800" y="110" width="80" height="40" as="geometry" />
        </mxCell>
        <mxCell id="KkdQSx_1zXDLFK-FRpoO-18" value="&lt;b&gt;rkód&lt;/b&gt;" style="ellipse;whiteSpace=wrap;html=1;" vertex="1" parent="1">
          <mxGeometry x="800" y="-40" width="80" height="40" as="geometry" />
        </mxCell>
        <mxCell id="KkdQSx_1zXDLFK-FRpoO-20" value="" style="endArrow=none;html=1;rounded=0;exitX=1;exitY=0.5;exitDx=0;exitDy=0;entryX=0;entryY=0.5;entryDx=0;entryDy=0;" edge="1" parent="1" source="KkdQSx_1zXDLFK-FRpoO-15" target="KkdQSx_1zXDLFK-FRpoO-17">
          <mxGeometry width="50" height="50" relative="1" as="geometry">
            <mxPoint x="920" y="140" as="sourcePoint" />
            <mxPoint x="970" y="90" as="targetPoint" />
            <Array as="points" />
          </mxGeometry>
        </mxCell>
        <mxCell id="KkdQSx_1zXDLFK-FRpoO-21" value="" style="endArrow=none;html=1;rounded=0;exitX=1;exitY=0.5;exitDx=0;exitDy=0;entryX=0;entryY=0.5;entryDx=0;entryDy=0;" edge="1" parent="1" source="KkdQSx_1zXDLFK-FRpoO-15" target="KkdQSx_1zXDLFK-FRpoO-16">
          <mxGeometry width="50" height="50" relative="1" as="geometry">
            <mxPoint x="920" y="140" as="sourcePoint" />
            <mxPoint x="970" y="90" as="targetPoint" />
          </mxGeometry>
        </mxCell>
        <mxCell id="KkdQSx_1zXDLFK-FRpoO-22" value="" style="endArrow=none;html=1;rounded=0;exitX=1;exitY=0.5;exitDx=0;exitDy=0;entryX=0;entryY=0.5;entryDx=0;entryDy=0;" edge="1" parent="1" source="KkdQSx_1zXDLFK-FRpoO-15" target="KkdQSx_1zXDLFK-FRpoO-18">
          <mxGeometry width="50" height="50" relative="1" as="geometry">
            <mxPoint x="920" y="140" as="sourcePoint" />
            <mxPoint x="970" y="90" as="targetPoint" />
          </mxGeometry>
        </mxCell>
        <mxCell id="KkdQSx_1zXDLFK-FRpoO-23" value="&lt;b&gt;ár&lt;/b&gt;" style="ellipse;html=1;labelBorderColor=none;whiteSpace=wrap;fillColor=none;strokeColor=default;dashed=1;" vertex="1" parent="1">
          <mxGeometry x="800" y="-120" width="80" height="40" as="geometry" />
        </mxCell>
        <mxCell id="KkdQSx_1zXDLFK-FRpoO-24" value="" style="endArrow=none;html=1;rounded=0;exitX=1;exitY=0.5;exitDx=0;exitDy=0;entryX=0;entryY=0.5;entryDx=0;entryDy=0;" edge="1" parent="1" source="KkdQSx_1zXDLFK-FRpoO-15" target="KkdQSx_1zXDLFK-FRpoO-23">
          <mxGeometry width="50" height="50" relative="1" as="geometry">
            <mxPoint x="1040" y="140" as="sourcePoint" />
            <mxPoint x="1090" y="90" as="targetPoint" />
          </mxGeometry>
        </mxCell>
        <mxCell id="KkdQSx_1zXDLFK-FRpoO-25" value="" style="endArrow=classic;html=1;rounded=0;exitX=0;exitY=0.5;exitDx=0;exitDy=0;" edge="1" parent="1" source="KkdQSx_1zXDLFK-FRpoO-14">
          <mxGeometry width="50" height="50" relative="1" as="geometry">
            <mxPoint x="590" y="40" as="sourcePoint" />
            <mxPoint x="160" y="100" as="targetPoint" />
          </mxGeometry>
        </mxCell>
        <mxCell id="KkdQSx_1zXDLFK-FRpoO-26" value="" style="endArrow=classic;html=1;rounded=0;exitX=1;exitY=0.5;exitDx=0;exitDy=0;entryX=0;entryY=0.5;entryDx=0;entryDy=0;" edge="1" parent="1" source="KkdQSx_1zXDLFK-FRpoO-14" target="KkdQSx_1zXDLFK-FRpoO-15">
          <mxGeometry width="50" height="50" relative="1" as="geometry">
            <mxPoint x="590" y="40" as="sourcePoint" />
            <mxPoint x="640" y="-10" as="targetPoint" />
          </mxGeometry>
        </mxCell>
        <mxCell id="KkdQSx_1zXDLFK-FRpoO-27" value="" style="endArrow=classic;html=1;rounded=0;exitX=1;exitY=0.5;exitDx=0;exitDy=0;" edge="1" parent="1" source="KkdQSx_1zXDLFK-FRpoO-14">
          <mxGeometry width="50" height="50" relative="1" as="geometry">
            <mxPoint x="590" y="40" as="sourcePoint" />
            <mxPoint x="540" y="10" as="targetPoint" />
          </mxGeometry>
        </mxCell>
        <mxCell id="KkdQSx_1zXDLFK-FRpoO-28" value="&lt;b&gt;V-R&lt;/b&gt;" style="rhombus;whiteSpace=wrap;html=1;" vertex="1" parent="1">
          <mxGeometry x="570" y="-200" width="80" height="80" as="geometry" />
        </mxCell>
        <mxCell id="KkdQSx_1zXDLFK-FRpoO-29" value="&lt;b&gt;Rendelés&lt;/b&gt;" style="rounded=0;whiteSpace=wrap;html=1;" vertex="1" parent="1">
          <mxGeometry x="550" y="-330" width="120" height="60" as="geometry" />
        </mxCell>
        <mxCell id="KkdQSx_1zXDLFK-FRpoO-30" value="" style="endArrow=classic;html=1;rounded=0;entryX=0.5;entryY=1;entryDx=0;entryDy=0;exitX=0.5;exitY=0;exitDx=0;exitDy=0;" edge="1" parent="1" source="KkdQSx_1zXDLFK-FRpoO-28" target="KkdQSx_1zXDLFK-FRpoO-29">
          <mxGeometry width="50" height="50" relative="1" as="geometry">
            <mxPoint x="590" y="-160" as="sourcePoint" />
            <mxPoint x="640" y="-210" as="targetPoint" />
          </mxGeometry>
        </mxCell>
        <mxCell id="KkdQSx_1zXDLFK-FRpoO-31" value="" style="endArrow=none;html=1;rounded=0;exitX=0.5;exitY=1;exitDx=0;exitDy=0;entryX=0.5;entryY=0;entryDx=0;entryDy=0;" edge="1" parent="1" source="KkdQSx_1zXDLFK-FRpoO-28" target="KkdQSx_1zXDLFK-FRpoO-15">
          <mxGeometry width="50" height="50" relative="1" as="geometry">
            <mxPoint x="590" y="-160" as="sourcePoint" />
            <mxPoint x="640" y="-210" as="targetPoint" />
          </mxGeometry>
        </mxCell>
        <mxCell id="KkdQSx_1zXDLFK-FRpoO-32" value="&lt;b&gt;vkód&lt;/b&gt;" style="ellipse;whiteSpace=wrap;html=1;" vertex="1" parent="1">
          <mxGeometry x="440" y="-420" width="80" height="40" as="geometry" />
        </mxCell>
        <mxCell id="KkdQSx_1zXDLFK-FRpoO-33" value="&lt;b&gt;név&lt;/b&gt;" style="ellipse;whiteSpace=wrap;html=1;" vertex="1" parent="1">
          <mxGeometry x="570" y="-420" width="80" height="40" as="geometry" />
        </mxCell>
        <mxCell id="KkdQSx_1zXDLFK-FRpoO-34" value="&lt;b&gt;lakcím&lt;/b&gt;" style="ellipse;whiteSpace=wrap;html=1;" vertex="1" parent="1">
          <mxGeometry x="690" y="-420" width="80" height="40" as="geometry" />
        </mxCell>
        <mxCell id="KkdQSx_1zXDLFK-FRpoO-35" value="" style="endArrow=none;html=1;rounded=0;exitX=0.5;exitY=1;exitDx=0;exitDy=0;entryX=0.5;entryY=0;entryDx=0;entryDy=0;" edge="1" parent="1" source="KkdQSx_1zXDLFK-FRpoO-32" target="KkdQSx_1zXDLFK-FRpoO-29">
          <mxGeometry width="50" height="50" relative="1" as="geometry">
            <mxPoint x="590" y="-160" as="sourcePoint" />
            <mxPoint x="640" y="-210" as="targetPoint" />
          </mxGeometry>
        </mxCell>
        <mxCell id="KkdQSx_1zXDLFK-FRpoO-36" value="" style="endArrow=none;html=1;rounded=0;entryX=0.5;entryY=1;entryDx=0;entryDy=0;exitX=0.5;exitY=0;exitDx=0;exitDy=0;" edge="1" parent="1" source="KkdQSx_1zXDLFK-FRpoO-29" target="KkdQSx_1zXDLFK-FRpoO-33">
          <mxGeometry width="50" height="50" relative="1" as="geometry">
            <mxPoint x="590" y="-160" as="sourcePoint" />
            <mxPoint x="640" y="-210" as="targetPoint" />
          </mxGeometry>
        </mxCell>
        <mxCell id="KkdQSx_1zXDLFK-FRpoO-37" value="" style="endArrow=none;html=1;rounded=0;entryX=0.5;entryY=1;entryDx=0;entryDy=0;exitX=0.5;exitY=0;exitDx=0;exitDy=0;" edge="1" parent="1" source="KkdQSx_1zXDLFK-FRpoO-29" target="KkdQSx_1zXDLFK-FRpoO-34">
          <mxGeometry width="50" height="50" relative="1" as="geometry">
            <mxPoint x="590" y="-160" as="sourcePoint" />
            <mxPoint x="640" y="-210" as="targetPoint" />
          </mxGeometry>
        </mxCell>
      </root>
    </mxGraphModel>
  </diagram>
</mxfile>
